<svg width="980" height="240" viewBox="0 0 980 240" fill="none" xmlns="http://www.w3.org/2000/svg">
  <defs>
    <linearGradient id="ptGradWord" x1="20" y1="10" x2="930" y2="220" gradientUnits="userSpaceOnUse">
      <stop offset="0" stop-color="#2CD7FF"/>
      <stop offset="1" stop-color="#08E39E"/>
    </linearGradient>
    <linearGradient id="ptGradMark" x1="34" y1="24" x2="186" y2="196" gradientUnits="userSpaceOnUse">
      <stop offset="0" stop-color="#2CD7FF"/>
      <stop offset="1" stop-color="#08E39E"/>
    </linearGradient>
  </defs>

  <rect x="0" y="0" width="216" height="216" fill="#022D8E"/>
  <g transform="translate(14 12) scale(0.74)">
    <path d="M146 14 184 44 162 47 141 27Z" fill="#022D8E"/>
    <path d="M184 28c-3.2 0-6.2 1.4-8.3 3.8l-28.8 33.2h16.8v71.4l-27.8-8.3c-9.5-2.8-19.8-.2-26.9 6.8l-35 35a23.7 23.7 0 0 0-6.8 16.9c0 6.4 2.5 12.4 7.1 16.9a23.8 23.8 0 0 0 33.7 0l22.8-22.8c2.1-2.1 5.5-2.2 7.8-.2l31.7 27.1a11.8 11.8 0 0 0 15.4-.4 11.8 11.8 0 0 0 1.1-16.6l-24.8-29v-97h16.9c4.4 0 8.4-2.5 10.4-6.4a11.8 11.8 0 0 0-1.3-12.2l-39.9-46a11.8 11.8 0 0 0-8.9-4.1Zm-74.7 30.6c-3.2 0-6.2 1.3-8.3 3.7L63.7 105h13.5v25.4l5.7-5.7a48 48 0 0 1 26.4-13.6V105h13.5c4.4 0 8.4-2.5 10.4-6.4a11.8 11.8 0 0 0-1.3-12.2L118.2 62.8a11.8 11.8 0 0 0-8.9-4.2Z" fill="url(#ptGradMark)"/>
    <path d="m45.9 122.1 41.2 27.7-16.4 16.4a23.6 23.6 0 0 0-6 9.9l-26.2-17.4a11.8 11.8 0 0 1-3.2-16.3l10.5-15.7Z" fill="url(#ptGradMark)"/>
    <rect x="82.1" y="191.5" width="43.6" height="16.9" rx="8.4" transform="rotate(40.4 82.1 191.5)" fill="url(#ptGradMark)"/>
    <rect x="63.5" y="201" width="43.6" height="16.9" rx="8.4" transform="rotate(40.4 63.5 201)" fill="url(#ptGradMark)"/>
    <rect x="45.4" y="211.2" width="43.6" height="16.9" rx="8.4" transform="rotate(40.4 45.4 211.2)" fill="url(#ptGradMark)"/>
  </g>
  <rect x="0" y="0" width="216" height="38" fill="#022D8E"/>

  <text x="252" y="148" fill="url(#ptGradWord)" font-size="112" font-weight="700" font-family="Plus Jakarta Sans, Segoe UI, Arial, sans-serif">
    ParTrabaho
  </text>
</svg>
